<svg width="16" height="16" viewBox="0 0 16 16" fill="none" xmlns="http://www.w3.org/2000/svg">
<path d="M0 3.556C0 0.628 0.628 0 3.556 0C6.484 0 7.111 0.628 7.111 3.556C7.111 6.484 6.484 7.111 3.556 7.111C0.628 7.111 0 6.484 0 3.556ZM0 12.444C0 9.516 0.628 8.889 3.556 8.889C6.484 8.889 7.111 9.516 7.111 12.444C7.111 15.372 6.484 16 3.556 16C0.628 16 0 15.372 0 12.444ZM12.444 0C9.516 0 8.889 0.628 8.889 3.556C8.889 6.484 9.516 7.111 12.444 7.111C15.372 7.111 16 6.484 16 3.556C16 0.628 15.372 0 12.444 0ZM8.889 12.444C8.889 9.516 9.516 8.889 12.444 8.889C15.372 8.889 16 9.516 16 12.444C16 15.372 15.372 16 12.444 16C9.516 16 8.889 15.372 8.889 12.444Z" fill="white"/>
</svg>
